<svg width="200" height="200" viewBox="0 0 200 200" fill="none" xmlns="http://www.w3.org/2000/svg">
<g filter="url(#filter0_d_305_997)">
<path fill-rule="evenodd" clip-rule="evenodd" d="M70.5038 64.1748L55.5 32L40.4962 64.1747C38.9115 67.434 38 71.2519 38 75.3333C38 87.2995 45.835 97 55.5 97C65.165 97 73 87.2995 73 75.3333C73 71.2519 72.0885 67.434 70.5038 64.1748Z" fill="#FFAC5D"/>
</g>
<g filter="url(#filter1_d_305_997)">
<path fill-rule="evenodd" clip-rule="evenodd" d="M159.504 135.175L144.5 103L129.496 135.175C127.912 138.434 127 142.252 127 146.333C127 158.299 134.835 168 144.5 168C154.165 168 162 158.299 162 146.333C162 142.252 161.089 138.434 159.504 135.175Z" fill="#FFDDBD"/>
</g>
<defs>
<filter id="filter0_d_305_997" x="34" y="32" width="43" height="73" filterUnits="userSpaceOnUse" color-interpolation-filters="sRGB">
<feFlood flood-opacity="0" result="BackgroundImageFix"/>
<feColorMatrix in="SourceAlpha" type="matrix" values="0 0 0 0 0 0 0 0 0 0 0 0 0 0 0 0 0 0 127 0" result="hardAlpha"/>
<feOffset dy="4"/>
<feGaussianBlur stdDeviation="2"/>
<feComposite in2="hardAlpha" operator="out"/>
<feColorMatrix type="matrix" values="0 0 0 0 0 0 0 0 0 0 0 0 0 0 0 0 0 0 0.1 0"/>
<feBlend mode="normal" in2="BackgroundImageFix" result="effect1_dropShadow_305_997"/>
<feBlend mode="normal" in="SourceGraphic" in2="effect1_dropShadow_305_997" result="shape"/>
</filter>
<filter id="filter1_d_305_997" x="123" y="103" width="43" height="73" filterUnits="userSpaceOnUse" color-interpolation-filters="sRGB">
<feFlood flood-opacity="0" result="BackgroundImageFix"/>
<feColorMatrix in="SourceAlpha" type="matrix" values="0 0 0 0 0 0 0 0 0 0 0 0 0 0 0 0 0 0 127 0" result="hardAlpha"/>
<feOffset dy="4"/>
<feGaussianBlur stdDeviation="2"/>
<feComposite in2="hardAlpha" operator="out"/>
<feColorMatrix type="matrix" values="0 0 0 0 0 0 0 0 0 0 0 0 0 0 0 0 0 0 0.1 0"/>
<feBlend mode="normal" in2="BackgroundImageFix" result="effect1_dropShadow_305_997"/>
<feBlend mode="normal" in="SourceGraphic" in2="effect1_dropShadow_305_997" result="shape"/>
</filter>
</defs>
</svg>
